<mxfile host="app.diagrams.net" modified="2023-04-06T18:23:29.190Z" agent="Mozilla/5.0 (Windows NT 10.0; Win64; x64) AppleWebKit/537.36 (KHTML, like Gecko) Chrome/111.0.0.0 Safari/537.36" etag="UFaerU0fGpy5XlRwPHfi" version="21.1.4" type="github">
  <diagram name="第 1 页" id="e_GZHFdNOrCHTup9UNsT">
    <mxGraphModel dx="1050" dy="580" grid="1" gridSize="10" guides="1" tooltips="1" connect="1" arrows="1" fold="1" page="1" pageScale="1" pageWidth="3300" pageHeight="4681" background="#ffffff" math="0" shadow="0">
      <root>
        <mxCell id="0" />
        <mxCell id="1" parent="0" />
        <mxCell id="RsKwWJYFNeszHucl-iUa-10" value="" style="group;fillColor=#eeeeee;strokeColor=#36393d;dashed=1;dashPattern=12 12;" parent="1" vertex="1" connectable="0">
          <mxGeometry x="190" y="260" width="90" height="230" as="geometry" />
        </mxCell>
        <mxCell id="RsKwWJYFNeszHucl-iUa-11" value="" style="rounded=0;whiteSpace=wrap;html=1;" parent="RsKwWJYFNeszHucl-iUa-10" vertex="1">
          <mxGeometry y="20" width="90" height="210" as="geometry" />
        </mxCell>
        <mxCell id="RsKwWJYFNeszHucl-iUa-12" value="商品中心" style="rounded=0;whiteSpace=wrap;html=1;fillColor=#f5f5f5;fontColor=#333333;strokeColor=#666666;" parent="RsKwWJYFNeszHucl-iUa-10" vertex="1">
          <mxGeometry width="90" height="20" as="geometry" />
        </mxCell>
        <mxCell id="7iVzLVZkadfMaypqnPs--5" value="商品信息" style="rounded=1;whiteSpace=wrap;html=1;fillColor=#eeeeee;strokeColor=#36393d;" vertex="1" parent="RsKwWJYFNeszHucl-iUa-10">
          <mxGeometry x="10" y="110" width="70" height="30" as="geometry" />
        </mxCell>
        <mxCell id="RsKwWJYFNeszHucl-iUa-13" value="" style="group;fillColor=#eeeeee;strokeColor=#36393d;" parent="1" vertex="1" connectable="0">
          <mxGeometry x="280" y="260" width="90" height="230" as="geometry" />
        </mxCell>
        <mxCell id="RsKwWJYFNeszHucl-iUa-14" value="" style="rounded=0;whiteSpace=wrap;html=1;" parent="RsKwWJYFNeszHucl-iUa-13" vertex="1">
          <mxGeometry y="20" width="90" height="210" as="geometry" />
        </mxCell>
        <mxCell id="RsKwWJYFNeszHucl-iUa-15" value="营销中心" style="rounded=0;whiteSpace=wrap;html=1;fillColor=#f5f5f5;fontColor=#333333;strokeColor=#666666;" parent="RsKwWJYFNeszHucl-iUa-13" vertex="1">
          <mxGeometry width="90" height="20" as="geometry" />
        </mxCell>
        <mxCell id="7iVzLVZkadfMaypqnPs--7" value="优惠信息" style="rounded=1;whiteSpace=wrap;html=1;fillColor=#eeeeee;strokeColor=#36393d;" vertex="1" parent="RsKwWJYFNeszHucl-iUa-13">
          <mxGeometry x="10" y="110" width="70" height="30" as="geometry" />
        </mxCell>
        <mxCell id="RsKwWJYFNeszHucl-iUa-16" value="" style="group;fillColor=#eeeeee;strokeColor=#36393d;" parent="1" vertex="1" connectable="0">
          <mxGeometry x="370" y="260" width="90" height="230" as="geometry" />
        </mxCell>
        <mxCell id="RsKwWJYFNeszHucl-iUa-17" value="" style="rounded=0;whiteSpace=wrap;html=1;" parent="RsKwWJYFNeszHucl-iUa-16" vertex="1">
          <mxGeometry y="20" width="90" height="210" as="geometry" />
        </mxCell>
        <mxCell id="RsKwWJYFNeszHucl-iUa-18" value="会员中心" style="rounded=0;whiteSpace=wrap;html=1;fillColor=#f5f5f5;fontColor=#333333;strokeColor=#666666;" parent="RsKwWJYFNeszHucl-iUa-16" vertex="1">
          <mxGeometry width="90" height="20" as="geometry" />
        </mxCell>
        <mxCell id="7iVzLVZkadfMaypqnPs--12" value="会员权益" style="rounded=1;whiteSpace=wrap;html=1;fillColor=#eeeeee;strokeColor=#36393d;" vertex="1" parent="RsKwWJYFNeszHucl-iUa-16">
          <mxGeometry x="10" y="110" width="70" height="30" as="geometry" />
        </mxCell>
        <mxCell id="RsKwWJYFNeszHucl-iUa-19" value="" style="group;fillColor=#eeeeee;strokeColor=#36393d;" parent="1" vertex="1" connectable="0">
          <mxGeometry x="460" y="260" width="90" height="230" as="geometry" />
        </mxCell>
        <mxCell id="RsKwWJYFNeszHucl-iUa-20" value="" style="rounded=0;whiteSpace=wrap;html=1;" parent="RsKwWJYFNeszHucl-iUa-19" vertex="1">
          <mxGeometry y="20" width="90" height="210" as="geometry" />
        </mxCell>
        <mxCell id="RsKwWJYFNeszHucl-iUa-21" value="库存中心" style="rounded=0;whiteSpace=wrap;html=1;fillColor=#f5f5f5;fontColor=#333333;strokeColor=#666666;" parent="RsKwWJYFNeszHucl-iUa-19" vertex="1">
          <mxGeometry width="90" height="20" as="geometry" />
        </mxCell>
        <mxCell id="7iVzLVZkadfMaypqnPs--14" value="库存锁定" style="rounded=1;whiteSpace=wrap;html=1;fillColor=#eeeeee;strokeColor=#36393d;" vertex="1" parent="RsKwWJYFNeszHucl-iUa-19">
          <mxGeometry x="10" y="150" width="70" height="30" as="geometry" />
        </mxCell>
        <mxCell id="RsKwWJYFNeszHucl-iUa-24" value="" style="group;fillColor=#eeeeee;strokeColor=#36393d;" parent="1" vertex="1" connectable="0">
          <mxGeometry x="550" y="260" width="90" height="230" as="geometry" />
        </mxCell>
        <mxCell id="RsKwWJYFNeszHucl-iUa-25" value="" style="rounded=0;whiteSpace=wrap;html=1;" parent="RsKwWJYFNeszHucl-iUa-24" vertex="1">
          <mxGeometry y="20" width="90" height="210" as="geometry" />
        </mxCell>
        <mxCell id="RsKwWJYFNeszHucl-iUa-26" value="WMS" style="rounded=0;whiteSpace=wrap;html=1;fillColor=#f5f5f5;fontColor=#333333;strokeColor=#666666;" parent="RsKwWJYFNeszHucl-iUa-24" vertex="1">
          <mxGeometry width="90" height="20" as="geometry" />
        </mxCell>
        <mxCell id="RsKwWJYFNeszHucl-iUa-27" value="" style="group" parent="1" vertex="1" connectable="0">
          <mxGeometry x="640" y="260" width="90" height="230" as="geometry" />
        </mxCell>
        <mxCell id="RsKwWJYFNeszHucl-iUa-28" value="" style="rounded=0;whiteSpace=wrap;html=1;" parent="RsKwWJYFNeszHucl-iUa-27" vertex="1">
          <mxGeometry y="20" width="90" height="210" as="geometry" />
        </mxCell>
        <mxCell id="RsKwWJYFNeszHucl-iUa-29" value="物流中心" style="rounded=0;whiteSpace=wrap;html=1;fillColor=#f5f5f5;fontColor=#333333;strokeColor=#666666;" parent="RsKwWJYFNeszHucl-iUa-27" vertex="1">
          <mxGeometry width="90" height="20" as="geometry" />
        </mxCell>
        <mxCell id="7iVzLVZkadfMaypqnPs--16" value="运费计算" style="rounded=1;whiteSpace=wrap;html=1;fillColor=#eeeeee;strokeColor=#36393d;" vertex="1" parent="RsKwWJYFNeszHucl-iUa-27">
          <mxGeometry x="10" y="150" width="70" height="30" as="geometry" />
        </mxCell>
        <mxCell id="RsKwWJYFNeszHucl-iUa-30" value="" style="group" parent="1" vertex="1" connectable="0">
          <mxGeometry x="730" y="260" width="90" height="230" as="geometry" />
        </mxCell>
        <mxCell id="RsKwWJYFNeszHucl-iUa-31" value="" style="rounded=0;whiteSpace=wrap;html=1;" parent="RsKwWJYFNeszHucl-iUa-30" vertex="1">
          <mxGeometry y="20" width="90" height="210" as="geometry" />
        </mxCell>
        <mxCell id="RsKwWJYFNeszHucl-iUa-32" value="支付中心" style="rounded=0;whiteSpace=wrap;html=1;fillColor=#f5f5f5;fontColor=#333333;strokeColor=#666666;" parent="RsKwWJYFNeszHucl-iUa-30" vertex="1">
          <mxGeometry width="90" height="20" as="geometry" />
        </mxCell>
        <mxCell id="7iVzLVZkadfMaypqnPs--25" value="订单支付" style="rounded=1;whiteSpace=wrap;html=1;fillColor=#eeeeee;strokeColor=#36393d;" vertex="1" parent="RsKwWJYFNeszHucl-iUa-30">
          <mxGeometry x="10" y="200" width="70" height="23.91" as="geometry" />
        </mxCell>
        <mxCell id="RsKwWJYFNeszHucl-iUa-33" value="" style="group" parent="1" vertex="1" connectable="0">
          <mxGeometry x="820" y="260" width="90" height="230" as="geometry" />
        </mxCell>
        <mxCell id="RsKwWJYFNeszHucl-iUa-34" value="" style="rounded=0;whiteSpace=wrap;html=1;" parent="RsKwWJYFNeszHucl-iUa-33" vertex="1">
          <mxGeometry y="20" width="90" height="210" as="geometry" />
        </mxCell>
        <mxCell id="RsKwWJYFNeszHucl-iUa-35" value="风控中心" style="rounded=0;whiteSpace=wrap;html=1;fillColor=#f5f5f5;fontColor=#333333;strokeColor=#666666;" parent="RsKwWJYFNeszHucl-iUa-33" vertex="1">
          <mxGeometry width="90" height="20" as="geometry" />
        </mxCell>
        <mxCell id="7iVzLVZkadfMaypqnPs--1" value="安全校验" style="rounded=1;whiteSpace=wrap;html=1;fillColor=#eeeeee;strokeColor=#36393d;" vertex="1" parent="RsKwWJYFNeszHucl-iUa-33">
          <mxGeometry x="10" y="50" width="70" height="23.91" as="geometry" />
        </mxCell>
        <mxCell id="RsKwWJYFNeszHucl-iUa-36" value="" style="group" parent="1" vertex="1" connectable="0">
          <mxGeometry x="910" y="260" width="90" height="230" as="geometry" />
        </mxCell>
        <mxCell id="RsKwWJYFNeszHucl-iUa-37" value="" style="rounded=0;whiteSpace=wrap;html=1;" parent="RsKwWJYFNeszHucl-iUa-36" vertex="1">
          <mxGeometry y="20" width="90" height="210" as="geometry" />
        </mxCell>
        <mxCell id="RsKwWJYFNeszHucl-iUa-38" value="客服系统" style="rounded=0;whiteSpace=wrap;html=1;fillColor=#f5f5f5;fontColor=#333333;strokeColor=#666666;" parent="RsKwWJYFNeszHucl-iUa-36" vertex="1">
          <mxGeometry width="90" height="20" as="geometry" />
        </mxCell>
        <mxCell id="RsKwWJYFNeszHucl-iUa-40" value="下单流程" style="rounded=0;whiteSpace=wrap;html=1;fillColor=#eeeeee;strokeColor=#36393d;" parent="1" vertex="1">
          <mxGeometry x="70" y="230" width="930" height="30" as="geometry" />
        </mxCell>
        <mxCell id="RsKwWJYFNeszHucl-iUa-41" value="生&lt;br&gt;成&lt;br&gt;订&lt;br&gt;单" style="rounded=0;whiteSpace=wrap;html=1;fillColor=#eeeeee;strokeColor=#36393d;" parent="1" vertex="1">
          <mxGeometry x="70" y="260" width="30" height="230" as="geometry" />
        </mxCell>
        <mxCell id="RsKwWJYFNeszHucl-iUa-42" value="出&lt;br&gt;库&lt;br&gt;签&lt;br&gt;收" style="rounded=0;whiteSpace=wrap;html=1;fillColor=#eeeeee;strokeColor=#36393d;" parent="1" vertex="1">
          <mxGeometry x="70" y="490" width="30" height="230" as="geometry" />
        </mxCell>
        <mxCell id="RsKwWJYFNeszHucl-iUa-43" value="订&lt;br&gt;单&lt;br&gt;售&lt;br&gt;后" style="rounded=0;whiteSpace=wrap;html=1;fillColor=#eeeeee;strokeColor=#36393d;" parent="1" vertex="1">
          <mxGeometry x="70" y="720" width="30" height="230" as="geometry" />
        </mxCell>
        <mxCell id="RsKwWJYFNeszHucl-iUa-46" value="" style="rounded=0;whiteSpace=wrap;html=1;" parent="1" vertex="1">
          <mxGeometry x="100" y="490" width="90" height="230" as="geometry" />
        </mxCell>
        <mxCell id="RsKwWJYFNeszHucl-iUa-47" value="" style="rounded=0;whiteSpace=wrap;html=1;" parent="1" vertex="1">
          <mxGeometry x="100" y="720" width="90" height="230" as="geometry" />
        </mxCell>
        <mxCell id="RsKwWJYFNeszHucl-iUa-48" value="" style="rounded=0;whiteSpace=wrap;html=1;" parent="1" vertex="1">
          <mxGeometry x="190" y="490" width="90" height="230" as="geometry" />
        </mxCell>
        <mxCell id="RsKwWJYFNeszHucl-iUa-49" value="" style="rounded=0;whiteSpace=wrap;html=1;" parent="1" vertex="1">
          <mxGeometry x="280" y="490" width="90" height="230" as="geometry" />
        </mxCell>
        <mxCell id="RsKwWJYFNeszHucl-iUa-50" value="" style="rounded=0;whiteSpace=wrap;html=1;" parent="1" vertex="1">
          <mxGeometry x="370" y="490" width="90" height="230" as="geometry" />
        </mxCell>
        <mxCell id="RsKwWJYFNeszHucl-iUa-51" value="" style="rounded=0;whiteSpace=wrap;html=1;" parent="1" vertex="1">
          <mxGeometry x="460" y="490" width="90" height="230" as="geometry" />
        </mxCell>
        <mxCell id="RsKwWJYFNeszHucl-iUa-52" value="" style="rounded=0;whiteSpace=wrap;html=1;" parent="1" vertex="1">
          <mxGeometry x="550" y="490" width="90" height="230" as="geometry" />
        </mxCell>
        <mxCell id="RsKwWJYFNeszHucl-iUa-53" value="" style="rounded=0;whiteSpace=wrap;html=1;" parent="1" vertex="1">
          <mxGeometry x="640" y="490" width="90" height="230" as="geometry" />
        </mxCell>
        <mxCell id="RsKwWJYFNeszHucl-iUa-54" value="" style="rounded=0;whiteSpace=wrap;html=1;" parent="1" vertex="1">
          <mxGeometry x="730" y="490" width="90" height="230" as="geometry" />
        </mxCell>
        <mxCell id="RsKwWJYFNeszHucl-iUa-55" value="" style="rounded=0;whiteSpace=wrap;html=1;" parent="1" vertex="1">
          <mxGeometry x="820" y="490" width="90" height="230" as="geometry" />
        </mxCell>
        <mxCell id="RsKwWJYFNeszHucl-iUa-56" value="" style="rounded=0;whiteSpace=wrap;html=1;" parent="1" vertex="1">
          <mxGeometry x="910" y="490" width="90" height="230" as="geometry" />
        </mxCell>
        <mxCell id="RsKwWJYFNeszHucl-iUa-57" value="" style="rounded=0;whiteSpace=wrap;html=1;" parent="1" vertex="1">
          <mxGeometry x="190" y="720" width="90" height="230" as="geometry" />
        </mxCell>
        <mxCell id="RsKwWJYFNeszHucl-iUa-58" value="" style="rounded=0;whiteSpace=wrap;html=1;" parent="1" vertex="1">
          <mxGeometry x="280" y="720" width="90" height="230" as="geometry" />
        </mxCell>
        <mxCell id="RsKwWJYFNeszHucl-iUa-59" value="" style="rounded=0;whiteSpace=wrap;html=1;" parent="1" vertex="1">
          <mxGeometry x="370" y="720" width="90" height="230" as="geometry" />
        </mxCell>
        <mxCell id="RsKwWJYFNeszHucl-iUa-60" value="" style="rounded=0;whiteSpace=wrap;html=1;" parent="1" vertex="1">
          <mxGeometry x="460" y="720" width="90" height="230" as="geometry" />
        </mxCell>
        <mxCell id="RsKwWJYFNeszHucl-iUa-61" value="" style="rounded=0;whiteSpace=wrap;html=1;" parent="1" vertex="1">
          <mxGeometry x="550" y="720" width="90" height="230" as="geometry" />
        </mxCell>
        <mxCell id="RsKwWJYFNeszHucl-iUa-62" value="" style="rounded=0;whiteSpace=wrap;html=1;" parent="1" vertex="1">
          <mxGeometry x="640" y="720" width="90" height="230" as="geometry" />
        </mxCell>
        <mxCell id="RsKwWJYFNeszHucl-iUa-63" value="" style="rounded=0;whiteSpace=wrap;html=1;" parent="1" vertex="1">
          <mxGeometry x="730" y="720" width="90" height="230" as="geometry" />
        </mxCell>
        <mxCell id="RsKwWJYFNeszHucl-iUa-64" value="" style="rounded=0;whiteSpace=wrap;html=1;" parent="1" vertex="1">
          <mxGeometry x="820" y="720" width="90" height="230" as="geometry" />
        </mxCell>
        <mxCell id="RsKwWJYFNeszHucl-iUa-65" value="" style="rounded=0;whiteSpace=wrap;html=1;" parent="1" vertex="1">
          <mxGeometry x="910" y="720" width="90" height="230" as="geometry" />
        </mxCell>
        <mxCell id="RsKwWJYFNeszHucl-iUa-69" value="" style="group;fillColor=#eeeeee;strokeColor=#36393d;" parent="1" vertex="1" connectable="0">
          <mxGeometry x="100" y="260" width="90" height="230" as="geometry" />
        </mxCell>
        <mxCell id="RsKwWJYFNeszHucl-iUa-70" value="" style="rounded=0;whiteSpace=wrap;html=1;" parent="RsKwWJYFNeszHucl-iUa-69" vertex="1">
          <mxGeometry y="20" width="90" height="210" as="geometry" />
        </mxCell>
        <mxCell id="RsKwWJYFNeszHucl-iUa-71" value="订单中心" style="rounded=0;whiteSpace=wrap;html=1;fillColor=#f5f5f5;fontColor=#333333;strokeColor=#666666;" parent="RsKwWJYFNeszHucl-iUa-69" vertex="1">
          <mxGeometry width="90" height="20" as="geometry" />
        </mxCell>
        <mxCell id="RsKwWJYFNeszHucl-iUa-68" value="下单" style="rounded=1;whiteSpace=wrap;html=1;fillColor=#eeeeee;strokeColor=#36393d;" parent="RsKwWJYFNeszHucl-iUa-69" vertex="1">
          <mxGeometry x="10" y="50" width="70" height="23.91" as="geometry" />
        </mxCell>
        <mxCell id="7iVzLVZkadfMaypqnPs--19" value="生成订单" style="rounded=1;whiteSpace=wrap;html=1;fillColor=#eeeeee;strokeColor=#36393d;" vertex="1" parent="RsKwWJYFNeszHucl-iUa-69">
          <mxGeometry x="10" y="200" width="70" height="23.91" as="geometry" />
        </mxCell>
        <mxCell id="7iVzLVZkadfMaypqnPs--4" style="edgeStyle=orthogonalEdgeStyle;rounded=0;orthogonalLoop=1;jettySize=auto;html=1;entryX=0;entryY=0.5;entryDx=0;entryDy=0;dashed=1;" edge="1" parent="1" source="RsKwWJYFNeszHucl-iUa-68" target="7iVzLVZkadfMaypqnPs--1">
          <mxGeometry relative="1" as="geometry" />
        </mxCell>
        <mxCell id="7iVzLVZkadfMaypqnPs--6" style="edgeStyle=orthogonalEdgeStyle;rounded=0;orthogonalLoop=1;jettySize=auto;html=1;dashed=1;" edge="1" parent="1" source="7iVzLVZkadfMaypqnPs--1" target="7iVzLVZkadfMaypqnPs--5">
          <mxGeometry relative="1" as="geometry">
            <Array as="points">
              <mxPoint x="865" y="350" />
              <mxPoint x="235" y="350" />
            </Array>
          </mxGeometry>
        </mxCell>
        <mxCell id="7iVzLVZkadfMaypqnPs--11" style="edgeStyle=orthogonalEdgeStyle;rounded=0;orthogonalLoop=1;jettySize=auto;html=1;dashed=1;" edge="1" parent="1" source="7iVzLVZkadfMaypqnPs--5" target="7iVzLVZkadfMaypqnPs--7">
          <mxGeometry relative="1" as="geometry" />
        </mxCell>
        <mxCell id="7iVzLVZkadfMaypqnPs--13" style="edgeStyle=orthogonalEdgeStyle;rounded=0;orthogonalLoop=1;jettySize=auto;html=1;dashed=1;" edge="1" parent="1" source="7iVzLVZkadfMaypqnPs--7" target="7iVzLVZkadfMaypqnPs--12">
          <mxGeometry relative="1" as="geometry" />
        </mxCell>
        <mxCell id="7iVzLVZkadfMaypqnPs--15" style="edgeStyle=orthogonalEdgeStyle;rounded=0;orthogonalLoop=1;jettySize=auto;html=1;dashed=1;" edge="1" parent="1" source="7iVzLVZkadfMaypqnPs--12" target="7iVzLVZkadfMaypqnPs--14">
          <mxGeometry relative="1" as="geometry" />
        </mxCell>
        <mxCell id="7iVzLVZkadfMaypqnPs--18" style="edgeStyle=orthogonalEdgeStyle;rounded=0;orthogonalLoop=1;jettySize=auto;html=1;dashed=1;" edge="1" parent="1" source="7iVzLVZkadfMaypqnPs--14" target="7iVzLVZkadfMaypqnPs--16">
          <mxGeometry relative="1" as="geometry" />
        </mxCell>
        <mxCell id="7iVzLVZkadfMaypqnPs--21" style="edgeStyle=orthogonalEdgeStyle;rounded=0;orthogonalLoop=1;jettySize=auto;html=1;entryX=0.5;entryY=0;entryDx=0;entryDy=0;dashed=1;" edge="1" parent="1" source="7iVzLVZkadfMaypqnPs--16" target="7iVzLVZkadfMaypqnPs--19">
          <mxGeometry relative="1" as="geometry">
            <Array as="points">
              <mxPoint x="685" y="450" />
              <mxPoint x="145" y="450" />
            </Array>
          </mxGeometry>
        </mxCell>
        <mxCell id="7iVzLVZkadfMaypqnPs--24" style="edgeStyle=orthogonalEdgeStyle;rounded=0;orthogonalLoop=1;jettySize=auto;html=1;entryX=0;entryY=0.75;entryDx=0;entryDy=0;dashed=1;" edge="1" parent="1" source="7iVzLVZkadfMaypqnPs--19">
          <mxGeometry relative="1" as="geometry">
            <mxPoint x="740" y="472.5" as="targetPoint" />
          </mxGeometry>
        </mxCell>
        <mxCell id="7iVzLVZkadfMaypqnPs--30" style="edgeStyle=orthogonalEdgeStyle;rounded=0;orthogonalLoop=1;jettySize=auto;html=1;entryX=0;entryY=0.5;entryDx=0;entryDy=0;dashed=1;" edge="1" parent="1" source="7iVzLVZkadfMaypqnPs--26" target="7iVzLVZkadfMaypqnPs--29">
          <mxGeometry relative="1" as="geometry" />
        </mxCell>
        <mxCell id="7iVzLVZkadfMaypqnPs--26" value="订单下推" style="rounded=1;whiteSpace=wrap;html=1;fillColor=#eeeeee;strokeColor=#36393d;" vertex="1" parent="1">
          <mxGeometry x="110" y="520" width="70" height="23.91" as="geometry" />
        </mxCell>
        <mxCell id="7iVzLVZkadfMaypqnPs--27" style="edgeStyle=orthogonalEdgeStyle;rounded=0;orthogonalLoop=1;jettySize=auto;html=1;entryX=0.5;entryY=0;entryDx=0;entryDy=0;dashed=1;" edge="1" parent="1" source="7iVzLVZkadfMaypqnPs--25" target="7iVzLVZkadfMaypqnPs--26">
          <mxGeometry relative="1" as="geometry">
            <Array as="points">
              <mxPoint x="775" y="500" />
              <mxPoint x="145" y="500" />
            </Array>
          </mxGeometry>
        </mxCell>
        <mxCell id="7iVzLVZkadfMaypqnPs--33" style="edgeStyle=orthogonalEdgeStyle;rounded=0;orthogonalLoop=1;jettySize=auto;html=1;dashed=1;" edge="1" parent="1" source="7iVzLVZkadfMaypqnPs--29" target="7iVzLVZkadfMaypqnPs--31">
          <mxGeometry relative="1" as="geometry" />
        </mxCell>
        <mxCell id="7iVzLVZkadfMaypqnPs--29" value="调度发货" style="rounded=1;whiteSpace=wrap;html=1;fillColor=#eeeeee;strokeColor=#36393d;" vertex="1" parent="1">
          <mxGeometry x="470" y="520" width="70" height="23.91" as="geometry" />
        </mxCell>
        <mxCell id="7iVzLVZkadfMaypqnPs--36" style="edgeStyle=orthogonalEdgeStyle;rounded=0;orthogonalLoop=1;jettySize=auto;html=1;entryX=0.5;entryY=0;entryDx=0;entryDy=0;dashed=1;" edge="1" parent="1" source="7iVzLVZkadfMaypqnPs--31" target="7iVzLVZkadfMaypqnPs--34">
          <mxGeometry relative="1" as="geometry" />
        </mxCell>
        <mxCell id="7iVzLVZkadfMaypqnPs--31" value="订单出库" style="rounded=1;whiteSpace=wrap;html=1;fillColor=#eeeeee;strokeColor=#36393d;" vertex="1" parent="1">
          <mxGeometry x="560" y="520" width="70" height="23.91" as="geometry" />
        </mxCell>
        <mxCell id="7iVzLVZkadfMaypqnPs--38" style="edgeStyle=orthogonalEdgeStyle;rounded=0;orthogonalLoop=1;jettySize=auto;html=1;entryX=1;entryY=0.5;entryDx=0;entryDy=0;dashed=1;" edge="1" parent="1" source="7iVzLVZkadfMaypqnPs--34" target="7iVzLVZkadfMaypqnPs--37">
          <mxGeometry relative="1" as="geometry" />
        </mxCell>
        <mxCell id="7iVzLVZkadfMaypqnPs--34" value="物流跟踪" style="rounded=1;whiteSpace=wrap;html=1;fillColor=#eeeeee;strokeColor=#36393d;" vertex="1" parent="1">
          <mxGeometry x="650" y="600" width="70" height="23.91" as="geometry" />
        </mxCell>
        <mxCell id="7iVzLVZkadfMaypqnPs--40" style="edgeStyle=orthogonalEdgeStyle;rounded=0;orthogonalLoop=1;jettySize=auto;html=1;dashed=1;" edge="1" parent="1" source="7iVzLVZkadfMaypqnPs--37" target="7iVzLVZkadfMaypqnPs--39">
          <mxGeometry relative="1" as="geometry" />
        </mxCell>
        <mxCell id="7iVzLVZkadfMaypqnPs--37" value="用户签收" style="rounded=1;whiteSpace=wrap;html=1;fillColor=#eeeeee;strokeColor=#36393d;" vertex="1" parent="1">
          <mxGeometry x="110" y="600" width="70" height="23.91" as="geometry" />
        </mxCell>
        <mxCell id="7iVzLVZkadfMaypqnPs--42" style="edgeStyle=orthogonalEdgeStyle;rounded=0;orthogonalLoop=1;jettySize=auto;html=1;entryX=0;entryY=0.5;entryDx=0;entryDy=0;dashed=1;" edge="1" parent="1" source="7iVzLVZkadfMaypqnPs--39" target="7iVzLVZkadfMaypqnPs--41">
          <mxGeometry relative="1" as="geometry" />
        </mxCell>
        <mxCell id="7iVzLVZkadfMaypqnPs--39" value="退货申请" style="rounded=1;whiteSpace=wrap;html=1;fillColor=#eeeeee;strokeColor=#36393d;" vertex="1" parent="1">
          <mxGeometry x="110" y="750" width="70" height="23.91" as="geometry" />
        </mxCell>
        <mxCell id="7iVzLVZkadfMaypqnPs--45" style="edgeStyle=orthogonalEdgeStyle;rounded=0;orthogonalLoop=1;jettySize=auto;html=1;entryX=1;entryY=0.5;entryDx=0;entryDy=0;dashed=1;" edge="1" parent="1" source="7iVzLVZkadfMaypqnPs--41" target="7iVzLVZkadfMaypqnPs--43">
          <mxGeometry relative="1" as="geometry">
            <Array as="points">
              <mxPoint x="955" y="802" />
            </Array>
          </mxGeometry>
        </mxCell>
        <mxCell id="7iVzLVZkadfMaypqnPs--41" value="售后审核&lt;br&gt;通过" style="rounded=1;whiteSpace=wrap;html=1;fillColor=#eeeeee;strokeColor=#36393d;" vertex="1" parent="1">
          <mxGeometry x="920" y="750" width="70" height="23.91" as="geometry" />
        </mxCell>
        <mxCell id="7iVzLVZkadfMaypqnPs--48" style="edgeStyle=orthogonalEdgeStyle;rounded=0;orthogonalLoop=1;jettySize=auto;html=1;entryX=1;entryY=0.5;entryDx=0;entryDy=0;" edge="1" parent="1" source="7iVzLVZkadfMaypqnPs--43" target="7iVzLVZkadfMaypqnPs--46">
          <mxGeometry relative="1" as="geometry" />
        </mxCell>
        <mxCell id="7iVzLVZkadfMaypqnPs--43" value="退货入库" style="rounded=1;whiteSpace=wrap;html=1;fillColor=#eeeeee;strokeColor=#36393d;" vertex="1" parent="1">
          <mxGeometry x="560" y="790" width="70" height="23.91" as="geometry" />
        </mxCell>
        <mxCell id="7iVzLVZkadfMaypqnPs--50" style="edgeStyle=orthogonalEdgeStyle;rounded=0;orthogonalLoop=1;jettySize=auto;html=1;entryX=1;entryY=0.5;entryDx=0;entryDy=0;dashed=1;" edge="1" parent="1" source="7iVzLVZkadfMaypqnPs--46" target="7iVzLVZkadfMaypqnPs--49">
          <mxGeometry relative="1" as="geometry">
            <mxPoint x="190" y="830" as="targetPoint" />
            <Array as="points" />
          </mxGeometry>
        </mxCell>
        <mxCell id="7iVzLVZkadfMaypqnPs--46" value="库存更新" style="rounded=1;whiteSpace=wrap;html=1;fillColor=#eeeeee;strokeColor=#36393d;" vertex="1" parent="1">
          <mxGeometry x="470" y="790" width="70" height="23.91" as="geometry" />
        </mxCell>
        <mxCell id="7iVzLVZkadfMaypqnPs--53" style="edgeStyle=orthogonalEdgeStyle;rounded=0;orthogonalLoop=1;jettySize=auto;html=1;entryX=0;entryY=0.5;entryDx=0;entryDy=0;dashed=1;" edge="1" parent="1" source="7iVzLVZkadfMaypqnPs--49" target="7iVzLVZkadfMaypqnPs--52">
          <mxGeometry relative="1" as="geometry">
            <Array as="points">
              <mxPoint x="145" y="842" />
            </Array>
          </mxGeometry>
        </mxCell>
        <mxCell id="7iVzLVZkadfMaypqnPs--49" value="售后状态&lt;br&gt;更新" style="rounded=1;whiteSpace=wrap;html=1;fillColor=#eeeeee;strokeColor=#36393d;" vertex="1" parent="1">
          <mxGeometry x="110" y="790" width="70" height="23.91" as="geometry" />
        </mxCell>
        <mxCell id="7iVzLVZkadfMaypqnPs--55" style="edgeStyle=orthogonalEdgeStyle;rounded=0;orthogonalLoop=1;jettySize=auto;html=1;dashed=1;" edge="1" parent="1" source="7iVzLVZkadfMaypqnPs--52" target="7iVzLVZkadfMaypqnPs--54">
          <mxGeometry relative="1" as="geometry">
            <Array as="points">
              <mxPoint x="775" y="870" />
              <mxPoint x="145" y="870" />
            </Array>
          </mxGeometry>
        </mxCell>
        <mxCell id="7iVzLVZkadfMaypqnPs--52" value="支付信息&lt;br&gt;查询" style="rounded=1;whiteSpace=wrap;html=1;fillColor=#eeeeee;strokeColor=#36393d;" vertex="1" parent="1">
          <mxGeometry x="740" y="830" width="70" height="23.91" as="geometry" />
        </mxCell>
        <mxCell id="7iVzLVZkadfMaypqnPs--54" value="退款成功" style="rounded=1;whiteSpace=wrap;html=1;fillColor=#eeeeee;strokeColor=#36393d;" vertex="1" parent="1">
          <mxGeometry x="110" y="880" width="70" height="23.91" as="geometry" />
        </mxCell>
      </root>
    </mxGraphModel>
  </diagram>
</mxfile>
